<?xml version="1.0" encoding="UTF-8"?>
<svg id="Calque_2" data-name="Calque 2" xmlns="http://www.w3.org/2000/svg" viewBox="0 0 59.99 47.87">
  <defs>
    <style>
      .cls-1 {
        fill: #fff;
      }
    </style>
  </defs>
  <g id="Layer_1" data-name="Layer 1">
    <g>
      <path class="cls-1" d="M22.9,35.4c.12,0,.24-.01,.35-.05l31.58-8.2c.54-.14,.94-.58,1.03-1.13l2.86-17.36c.07-.41-.05-.84-.33-1.15-.28-.32-.68-.51-1.1-.48l-40.39,1.09c-.78,.02-1.39,.67-1.36,1.44,.02,.78,.68,1.41,1.44,1.36l38.69-1.04-2.43,14.78-29.38,7.63L14.94,2.48c-.16-.53-.62-.92-1.18-.99L1.57,0C.81-.08,.1,.46,.01,1.23c-.09,.77,.46,1.47,1.22,1.56l11.27,1.36,9.04,30.24c.18,.61,.74,1,1.34,1Z"/>
      <path class="cls-1" d="M25.35,35.73c-3.35,0-6.07,2.72-6.07,6.07s2.72,6.07,6.07,6.07,6.07-2.72,6.07-6.07-2.72-6.07-6.07-6.07Zm0,9.33c-1.8,0-3.26-1.46-3.26-3.26s1.46-3.26,3.26-3.26,3.26,1.46,3.26,3.26-1.46,3.26-3.26,3.26Z"/>
      <path class="cls-1" d="M53.92,32.59c-3.35,0-6.07,2.72-6.07,6.07s2.72,6.07,6.07,6.07,6.07-2.72,6.07-6.07-2.72-6.07-6.07-6.07Zm0,9.33c-1.8,0-3.26-1.46-3.26-3.26s1.46-3.26,3.26-3.26,3.26,1.46,3.26,3.26-1.46,3.26-3.26,3.26Z"/>
      <path class="cls-1" d="M37.77,8.52c-.78,0-1.4,.63-1.4,1.4l-.03,4.38-17.22,1.07c-.77,.05-1.36,.71-1.31,1.49,.05,.74,.66,1.32,1.4,1.32,.03,0,.06,0,.09,0l17.05-1.06v4.81l-14.94,2.34c-.77,.12-1.29,.84-1.16,1.61,.11,.69,.71,1.18,1.38,1.18,.07,0,.15,0,.22-.02l14.5-2.27v4.28c0,.78,.63,1.4,1.4,1.4s1.4-.63,1.4-1.4v-4.73l15.53-2.52c.77-.12,1.29-.84,1.16-1.61-.12-.77-.85-1.29-1.61-1.16l-15.09,2.45v-4.54l16.28-.95c.77-.05,1.36-.71,1.31-1.49-.05-.77-.72-1.37-1.49-1.31l-16.11,.94,.03-4.2c0-.78-.63-1.4-1.4-1.4Z"/>
    </g>
  </g>
</svg>